<?xml version="1.0" standalone="no"?>
<!DOCTYPE svg PUBLIC "-//W3C//DTD SVG 20010904//EN"
 "http://www.w3.org/TR/2001/REC-SVG-20010904/DTD/svg10.dtd">
<svg version="1.0" xmlns="http://www.w3.org/2000/svg"
 width="500.000000pt" height="500.000000pt" viewBox="0 0 500.000000 500.000000"
 preserveAspectRatio="xMidYMid meet">
<metadata>
Created by potrace 1.14, written by Peter Selinger 2001-2017
</metadata>
<g transform="translate(0.000000,500.000000) scale(0.100000,-0.100000)"
fill="#000000" stroke="none">
<path d="M1982 2684 c-131 -67 -94 -265 52 -281 115 -13 200 106 151 211 -35
73 -131 106 -203 70z"/>
<path d="M2882 2684 c-131 -67 -94 -265 52 -281 115 -13 200 106 151 211 -35
73 -131 106 -203 70z"/>
<path d="M2265 2109 c-10 -15 28 -52 88 -85 47 -26 61 -29 147 -29 86 0 100 3
147 29 60 33 98 70 88 85 -10 16 -41 13 -56 -6 -28 -34 -111 -63 -179 -63 -68
0 -151 29 -179 63 -15 19 -46 22 -56 6z"/>
<path d="M2298 704 c-56 -30 -45 -94 19 -115 51 -16 53 -17 46 -34 -7 -20 -49
-19 -57 0 -10 27 -36 17 -36 -14 0 -38 11 -45 66 -36 51 7 84 34 84 68 0 33
-13 47 -56 62 -42 14 -56 38 -27 49 12 5 22 1 31 -13 18 -27 42 -16 42 20 0
28 -2 29 -42 29 -24 -1 -55 -7 -70 -16z"/>
<path d="M2587 648 c6 -108 10 -118 48 -134 50 -20 73 -17 104 14 21 21 30 41
35 85 4 31 12 57 17 57 19 0 8 28 -13 34 -40 10 -68 7 -68 -9 0 -8 6 -15 13
-15 10 0 12 -14 6 -61 -8 -69 -17 -82 -50 -77 -23 3 -24 7 -24 71 0 47 4 70
14 76 24 15 1 31 -43 31 l-43 0 4 -72z"/>
<path d="M1933 639 c-70 -45 -63 -153 12 -185 48 -20 104 -5 140 38 23 27 26
39 22 76 -7 62 -38 92 -96 92 -29 0 -58 -8 -78 -21z m91 -31 c40 -62 24 -137
-26 -125 -29 8 -48 44 -48 90 0 57 46 78 74 35z"/>
<path d="M2983 628 c-24 -11 -53 -64 -53 -96 0 -47 75 -102 139 -102 24 0 32
5 37 24 3 14 12 27 20 30 26 10 14 24 -33 40 -37 13 -48 13 -54 4 -5 -7 -2
-16 6 -20 13 -8 10 -48 -5 -48 -4 0 -14 8 -23 18 -39 43 -2 136 52 130 18 -2
27 -10 29 -26 4 -28 30 -41 43 -21 17 27 10 55 -16 67 -32 15 -112 14 -142 0z"/>
<path d="M1651 541 c-30 -16 -32 -19 -17 -33 13 -13 14 -22 5 -47 -13 -37 -22
-39 -37 -7 -7 16 -7 27 0 34 6 6 6 12 0 16 -16 10 -101 -35 -95 -50 3 -7 10
-12 16 -11 16 3 77 -114 71 -135 -7 -22 6 -23 51 -1 34 16 48 43 22 43 -16 0
-40 47 -28 54 4 3 23 -8 42 -24 38 -33 47 -35 84 -18 29 13 34 38 8 38 -10 0
-36 13 -59 28 l-41 28 22 47 c30 62 19 72 -44 38z"/>
<path d="M3325 540 c-3 -6 -3 -15 1 -21 9 -15 -46 -139 -62 -139 -35 0 -7 -28
56 -57 l68 -31 22 23 c19 20 19 23 5 29 -9 3 -21 3 -26 0 -6 -3 -21 -3 -34 0
-22 6 -23 9 -13 31 12 27 38 34 38 11 0 -25 28 -26 45 0 18 28 11 48 -15 41
-30 -8 -44 7 -30 32 14 27 44 24 48 -6 6 -42 51 -36 52 7 0 19 -146 94 -155
80z"/>
</g>
</svg>
